<?xml version="1.0" standalone="no"?><svg xmlns="http://www.w3.org/2000/svg" viewBox="0 0 1440 320"><path fill="#0099ff" fill-opacity="1" d="M0,224L13.3,192C26.7,160,53,96,80,101.3C106.7,107,133,181,160,208C186.7,235,213,213,240,192C266.7,171,293,149,320,138.7C346.7,128,373,128,400,144C426.7,160,453,192,480,197.3C506.7,203,533,181,560,149.3C586.7,117,613,75,640,74.7C666.7,75,693,117,720,154.7C746.7,192,773,224,800,224C826.7,224,853,192,880,160C906.7,128,933,96,960,80C986.7,64,1013,64,1040,96C1066.7,128,1093,192,1120,218.7C1146.7,245,1173,235,1200,213.3C1226.7,192,1253,160,1280,165.3C1306.7,171,1333,213,1360,208C1386.7,203,1413,149,1427,122.7L1440,96L1440,320L1426.7,320C1413.3,320,1387,320,1360,320C1333.3,320,1307,320,1280,320C1253.3,320,1227,320,1200,320C1173.3,320,1147,320,1120,320C1093.3,320,1067,320,1040,320C1013.3,320,987,320,960,320C933.3,320,907,320,880,320C853.3,320,827,320,800,320C773.3,320,747,320,720,320C693.3,320,667,320,640,320C613.3,320,587,320,560,320C533.3,320,507,320,480,320C453.3,320,427,320,400,320C373.3,320,347,320,320,320C293.3,320,267,320,240,320C213.3,320,187,320,160,320C133.3,320,107,320,80,320C53.3,320,27,320,13,320L0,320Z"></path></svg>